<svg viewBox="0 0 24 24" fill="none" xmlns="http://www.w3.org/2000/svg">
  <g id="SVGRepo_bgCarrier" stroke-width="0"></g>
  <g id="SVGRepo_tracerCarrier" stroke-linecap="round" stroke-linejoin="round"></g>
  <g id="SVGRepo_iconCarrier">
    <!-- Outer circle with darker blue stroke -->
    <path opacity="0.5" d="M2 12C2 7.28595 2 4.92893 3.46447 3.46447C4.92893 2 7.28595 2 12 2C16.714 2 19.0711 2 20.5355 3.46447C22 4.92893 22 7.28595 22 12C22 16.714 22 19.0711 20.5355 20.5355C19.0711 22 16.714 22 12 22C7.28595 22 4.92893 22 3.46447 20.5355C2 19.0711 2 16.714 2 12Z" stroke="#357ABD" stroke-width="1.5"></path>
    
    <!-- Vertical and horizontal lines with darker blue stroke -->
    <path d="M7 18L7 15" stroke="#1E3A8A" stroke-width="1.5" stroke-linecap="round"></path>
    <path d="M12 18V12" stroke="#1E3A8A" stroke-width="1.5" stroke-linecap="round"></path>
    <path d="M17 18V9" stroke="#1E3A8A" stroke-width="1.5" stroke-linecap="round"></path>
    
    <!-- Text "PINGE" with monospace font and small size -->
    <text x="12" y="6" font-family="monospace" font-size="4" fill="#1E3A8A" font-weight="bold" text-anchor="middle" alignment-baseline="middle">PINGE</text>
  </g>
</svg>